<svg xmlns="http://www.w3.org/2000/svg" viewBox="0 0 800 800">
    <circle class="eyeball" cx="400" cy="400" r="115"/>
    <path class="outline" d="M400,585c-130.9,0-230.09-39.41-277.56-62.91-35.13-17.38-65-37.24-86.32-57.43C12.15,442,0,420.24,0,400s12.15-42,36.12-64.66c21.34-20.18,51.19-40,86.32-57.43C169.91,254.42,269.1,215,400,215s230.09,39.42,277.56,62.91c35.13,17.39,65,37.25,86.32,57.43C787.85,358,800,379.76,800,400s-12.15,42-36.12,64.66c-21.34,20.19-51.19,40-86.32,57.43C630.09,545.59,530.9,585,400,585Zm0-329.63c-122.4,0-214.85,36.71-259.06,58.59C68.2,350,41.1,385.84,41.1,400s27.1,50.05,99.84,86C185.15,507.92,277.6,544.63,400,544.63S614.85,507.92,659.06,486c72.74-36,99.84-71.88,99.84-86s-27.1-50-99.84-86C614.85,292.08,522.4,255.37,400,255.37Z"/>
    <rect width="800" height="800"/>
</svg>