<svg xmlns="http://www.w3.org/2000/svg" viewBox="0 0 800 800"><defs><style>.cls-1{fill:blue;}.cls-2{fill:none;}</style></defs><g id="Layer_2" data-name="Layer 2"><g id="Layer_1-2" data-name="Layer 1"><circle class="cls-1" cx="400" cy="400" r="115"/><rect class="cls-2" width="800" height="800"/><path class="cls-1" d="M763.88,335.34c-5.31-5-11.15-10-17.46-15l41.1-71.19-21.65-12.5-39.83,69a437.7,437.7,0,0,0-46.2-26.61l34-72.84-22.66-10.57L657.23,268.4c-12.93-5.72-28.13-11.86-45.41-17.86l28-77L616.36,165,588,242.81c-12.78-3.87-26.44-7.58-40.93-10.95l14.57-82.65-24.62-4.34-14.42,81.8c-13.62-2.62-27.86-4.9-42.69-6.74l7.2-82.37-24.9-2.18-7.17,82c-13.76-1.17-28-1.94-42.58-2.22V131.28h-25v83.84c-14.62.28-28.82,1-42.58,2.22l-7.17-82-24.9,2.18,7.2,82.37c-14.82,1.84-29.07,4.12-42.68,6.74l-14.43-81.8-24.62,4.34,14.57,82.65c-14.49,3.37-28.15,7.08-40.92,10.95L183.65,165l-23.5,8.55,28,77c-17.28,6-32.48,12.14-45.4,17.86l-33.93-72.75L86.19,206.22l34,72.84A436.52,436.52,0,0,0,74,305.67l-39.84-69-21.65,12.5,41.1,71.19c-6.31,4.95-12.15,9.95-17.46,15C12.15,358,0,379.76,0,400s12.15,42,36.12,64.66c21.34,20.19,51.19,40,86.32,57.43C169.91,545.59,269.1,585,400,585s230.09-39.41,277.56-62.91c35.13-17.38,65-37.24,86.32-57.43C787.85,442,800,420.24,800,400S787.85,358,763.88,335.34ZM659.06,486C614.85,507.92,522.4,544.63,400,544.63S185.15,507.92,140.94,486c-72.74-36-99.84-71.88-99.84-86s27.1-50,99.84-86C185.15,292.08,277.6,255.37,400,255.37S614.85,292.08,659.06,314c72.74,36,99.84,71.88,99.84,86S731.8,450.05,659.06,486Z"/></g></g></svg>