<svg xmlns="http://www.w3.org/2000/svg" viewBox="0 0 478.34 478.34"><defs><style>.cls-1{fill:#fff;}.cls-2{fill:none;}</style></defs><g id="Layer_2" data-name="Layer 2"><g id="Layer_1-2" data-name="Layer 1"><path class="cls-1" d="M61.91,247.51q5.41,3.45,6.36,11.62T64.72,271.9a18.53,18.53,0,0,1-11.48,5.39,18.59,18.59,0,0,1-12.35-2.65q-5.51-3.43-6.44-11.61t3.63-12.78a18.56,18.56,0,0,1,11.43-5.38A18.44,18.44,0,0,1,61.91,247.51Zm-3.82,7.16c-1.88-1.1-4.4-1.47-7.58-1.1s-5.55,1.3-7.11,2.79a7.42,7.42,0,0,0,1.29,11.19q2.79,1.68,7.56,1.12c3.18-.36,5.55-1.3,7.13-2.81a7.39,7.39,0,0,0-1.29-11.19Z"/><path class="cls-1" d="M39.26,209.9q4.44-3.54,12.41-2.89,8.41.7,12.5,4.87a12.4,12.4,0,0,1,3.6,10.17,10.27,10.27,0,0,1-2.43,6.19,12.18,12.18,0,0,1-3.29,2.45l16.59,1.38L78,240.3,33.6,236.62l.66-8L39,229a13.57,13.57,0,0,1-3-3.16,10.69,10.69,0,0,1-1.58-6.81A12.68,12.68,0,0,1,39.26,209.9Zm5.46,6.89a5.92,5.92,0,0,0-3.29,5.26,6.27,6.27,0,0,0,3.77,6.64,16.21,16.21,0,0,0,5.7,1.37c3.7.3,6.38-.47,8.05-2.33a6.93,6.93,0,0,0,1.66-4.08,6.12,6.12,0,0,0-2.24-5.58,12.5,12.5,0,0,0-7-2.44A12.42,12.42,0,0,0,44.72,216.79Z"/><path class="cls-1" d="M44.54,176a13,13,0,0,1,6.05-4,15.81,15.81,0,0,1,7-.66,41.77,41.77,0,0,1,6.18,1.45l-6.3,22.39q4.68,1.11,7.39-1.39a8.49,8.49,0,0,0,2.4-4.1,7,7,0,0,0-.15-4.86,7.21,7.21,0,0,0-1.65-2.25l2.3-8.21a10.38,10.38,0,0,1,4.72,4.54q3.33,5.4,1.23,12.83a17.36,17.36,0,0,1-6.82,9.76q-5.12,3.63-13.63,1.23-8-2.25-11.06-7.68a15.37,15.37,0,0,1-1.17-12.19A18.18,18.18,0,0,1,44.54,176Zm3.57,14a8.6,8.6,0,0,0,4.15,3.48l3.9-13.84a6.94,6.94,0,0,0-5.46.77,7.27,7.27,0,0,0-3,4.3A6.58,6.58,0,0,0,48.11,190Z"/><path class="cls-1" d="M62.61,137.82q3.73-1.63,9.09,1.06l19.21,9.67-3.84,7.64-17.35-8.73A8.76,8.76,0,0,0,66,146.32c-1.83,0-3.26,1-4.29,3.05a5.78,5.78,0,0,0,.62,6.79,12.62,12.62,0,0,0,4,2.91l15.44,7.77L78,174.3,49.48,160l3.64-7.22,4.16,2.09a13.75,13.75,0,0,1-1.8-4.3,10.45,10.45,0,0,1,1.19-6.68A12.24,12.24,0,0,1,62.61,137.82Z"/><path class="cls-1" d="M300,83.17l.93.5a11.77,11.77,0,0,0,2.16.92,4.2,4.2,0,0,0,2,.2,4.55,4.55,0,0,0,2.12-1.3A5,5,0,0,0,308.54,82l3.64-35.15,8.39,4-3.76,24.27,16-18.48,8,3.8L317.54,84.09q-6.75,6.85-9.35,8t-7.62-1.19c-.67-.31-1.21-.57-1.61-.77s-1-.52-1.78-1Z"/><path class="cls-1" d="M353.54,103.49q-6.21,1.64-12.85-3.23T333.74,89a19.81,19.81,0,0,1,14.18-19.35q6.25-1.69,12.9,3.17t6.9,11.34a19.79,19.79,0,0,1-14.18,19.35Zm-2.66-7.67c2.09-.63,4.07-2.23,6-4.81s2.82-5,2.79-7.12a7.43,7.43,0,0,0-9.09-6.66c-2.08.62-4.07,2.21-6,4.79s-2.82,5-2.78,7.14a6.65,6.65,0,0,0,3,5.43A6.58,6.58,0,0,0,350.88,95.82Z"/><path class="cls-1" d="M386.55,96.46l-14.22,13a10.27,10.27,0,0,0-2.6,3.24c-.68,1.65-.28,3.3,1.22,4.94q2.87,3.14,6.48,2a12.63,12.63,0,0,0,4.21-2.73l12.83-11.71,5.71,6.25-23.59,21.53-5.47-6,3.33-3c-.12,0-.47.06-1,.16a5.72,5.72,0,0,1-1.7,0,11.52,11.52,0,0,1-4.33-1.17,12.77,12.77,0,0,1-3.36-2.73q-4.77-5.22-2.65-10.47c.76-1.94,2.5-4.14,5.2-6.61l14.21-13Z"/><path class="cls-1" d="M417.21,135.39l.35.63-7.17,4.66c-.24-.47-.46-.88-.67-1.24s-.38-.64-.51-.85c-1.84-2.81-4-4.11-6.45-3.88a12.73,12.73,0,0,0-5.29,2.29l-12.79,8.32-4.59-7,26.77-17.42,4.35,6.68-4.67,3a17.54,17.54,0,0,1,5.5.45,9.18,9.18,0,0,1,5,4Z"/><path class="cls-1" d="M354.28,408.3a12.9,12.9,0,0,1-7.25-.51,15.72,15.72,0,0,1-6-3.79,40.76,40.76,0,0,1-4-4.93l18.69-13.84q-3-3.75-6.69-3.43a8.63,8.63,0,0,0-4.42,1.77,7.12,7.12,0,0,0-2.85,3.94,7,7,0,0,0-.07,2.79l-6.85,5.07a10.36,10.36,0,0,1-.95-6.48c.45-4.19,2.74-7.83,6.88-10.89a17.43,17.43,0,0,1,11.38-3.54q6.26.26,11.52,7.38,4.95,6.66,4,12.84A15.41,15.41,0,0,1,361.2,405,18.14,18.14,0,0,1,354.28,408.3ZM360,395.07a8.71,8.71,0,0,0-1.15-5.29l-11.56,8.56a7,7,0,0,0,4.79,2.73,7.27,7.27,0,0,0,5-1.57A6.6,6.6,0,0,0,360,395.07Z"/><path class="cls-1" d="M322.89,384.17l-1,.41a11.94,11.94,0,0,0-2.07,1.11,4.19,4.19,0,0,0-1.39,1.43,4.56,4.56,0,0,0-.31,2.46,5,5,0,0,0,.37,2l25.2,24.78-8.34,4.08-16.62-18.08,4.44,24.05-8,3.91-4-33q-1.14-9.55-.44-12.33c.46-1.85,2.36-3.59,5.67-5.21.67-.33,1.21-.59,1.62-.77s1-.46,1.86-.8Z"/><path class="cls-1" d="M286.59,438.21a13,13,0,0,1-6.59-3.06,15.77,15.77,0,0,1-4.23-5.68,41.68,41.68,0,0,1-2-6l22.4-6.26c-1-3.05-2.66-4.91-5-5.59a8.5,8.5,0,0,0-4.76.08,6.47,6.47,0,0,0-5.13,5.24l-8.21,2.3a10.4,10.4,0,0,1,1.43-6.39q2.88-5.65,10.31-7.73a17.41,17.41,0,0,1,11.89.76q5.76,2.47,8.14,11,2.24,8-.81,13.44a15.41,15.41,0,0,1-9.81,7.34A18.14,18.14,0,0,1,286.59,438.21Zm10.09-10.31a8.66,8.66,0,0,0,.81-5.36l-13.86,3.87a7,7,0,0,0,3.5,4.26,7.32,7.32,0,0,0,5.24.33A6.65,6.65,0,0,0,296.68,427.9Z"/><path class="cls-1" d="M262.16,421.17a5.53,5.53,0,0,0-1.43-3.05c-1.13-1-3.1-1.39-5.89-1.14a8.91,8.91,0,0,0-3.85,1.08,2.46,2.46,0,0,0,.11,4.35c.82.41,3.8,1,8.92,1.72q5.55.86,8,2.66a7.35,7.35,0,0,1,2.73,5.52,9.94,9.94,0,0,1-2.78,7.89q-3.18,3.48-9.47,4a18,18,0,0,1-9.93-1.49q-4-2-5.06-7.83l8.32-.75a5,5,0,0,0,1.13,2.46q1.53,1.56,4.84,1.27a6.86,6.86,0,0,0,3.8-1.2,2.43,2.43,0,0,0,1-2.09,2.16,2.16,0,0,0-1.41-2c-.86-.37-3.83-.88-8.89-1.52a15.92,15.92,0,0,1-7.77-2.86,8,8,0,0,1-3-5.76,9.65,9.65,0,0,1,2.82-8q3.25-3.32,10.62-4t11.38,2.16a10.33,10.33,0,0,1,4.31,7.75Z"/><circle class="cls-2" cx="239.17" cy="239.17" r="239.17"/></g></g></svg>