<svg xmlns="http://www.w3.org/2000/svg" viewBox="0 0 150 150">

<g class="smiley-outline">
<rect x="60" width="30" height="5"/><rect x="50" y="5" width="10" height="5"/><rect x="90" y="5" width="10.01" height="5"/><rect x="40" y="10.01" width="10.01" height="4.99"/><rect x="100.01" y="10.01" width="10" height="4.99"/><rect x="30" y="15" width="10" height="5"/><rect x="110" y="15" width="10" height="5"/><rect x="25" y="20" width="5" height="5"/><rect x="120" y="20" width="5" height="5"/><rect x="20" y="25.01" width="4.99" height="4.99"/><rect x="125" y="25.01" width="5" height="4.99"/><rect x="15" y="30" width="5" height="10.01"/><rect x="130.01" y="30" width="4.99" height="10.01"/><rect x="10" y="40.01" width="5" height="10"/><rect x="135" y="40.01" width="5" height="10"/><rect x="5" y="50" width="4.99" height="10"/><rect x="140" y="50" width="5" height="10"/><rect x="145.01" y="60" width="4.99" height="30"/><rect y="60" width="5" height="30"/><rect x="5" y="90" width="4.99" height="10.01"/><rect x="140" y="90" width="5" height="10.01"/><rect x="10" y="100.01" width="5" height="10"/><rect x="135" y="100.01" width="5" height="10"/><rect x="15" y="110" width="5" height="10.01"/><rect x="130.01" y="110" width="4.99" height="10.01"/><rect x="20" y="120.01" width="4.99" height="4.99"/><rect x="125" y="120.01" width="5" height="4.99"/><rect x="25" y="125" width="5" height="5"/><rect x="120" y="125" width="5" height="5"/><rect x="30" y="130.01" width="10" height="5"/><rect x="110" y="130.01" width="10" height="5"/><rect x="40" y="135.01" width="10.01" height="4.99"/><rect x="100.01" y="135.01" width="10" height="4.99"/><rect x="50" y="140" width="10" height="5"/><rect x="90" y="140" width="10.01" height="5"/><rect x="60" y="145.01" width="30" height="5"/><polygon points="60 35 60 45 55 45 55 40.01 45 40.01 45 35 60 35"/><rect x="40" y="40.01" width="5" height="4.99"/><polygon points="105 35 105 40.01 95 40.01 95 45 90 45 90 35 105 35"/><rect x="105" y="40.01" width="5" height="4.99"/><rect x="35" y="45" width="4.99" height="5"/><rect x="60" y="45" width="5" height="5"/><rect x="85.01" y="45" width="4.99" height="5"/><rect x="110" y="45" width="5" height="5"/><rect x="115.01" y="70.01" width="4.99" height="10"/><rect x="30" y="70.01" width="5" height="10"/><rect x="20" y="80" width="10" height="5"/><rect x="120" y="80" width="10.01" height="5"/><rect x="30" y="85.01" width="5" height="4.99"/><rect x="115.01" y="85.01" width="4.99" height="4.99"/><rect x="35" y="90" width="4.99" height="10.01"/><rect x="110" y="90" width="5" height="10.01"/><rect x="40" y="100.01" width="10.01" height="5"/><rect x="100.01" y="100.01" width="10" height="5"/><rect x="50" y="105.01" width="10" height="4.99"/><rect x="90" y="105.01" width="10.01" height="4.99"/><rect x="60" y="110" width="30" height="5"/></g>

<path class="smiley-fill" d="M140,60V50h-5V40h-5V30h-5V25h-5V20H110V15H100V10H90V5H60v5H50v5H40v5H30v5H25v5H20V40H15V50H10V60H5V90h5v10h5v10h5v10h5v5h5v5H40v5H50v5H60v5H90v-5h10v-5h10v-5h10v-5h5v-5h5V110h5V100h5V90h5V60ZM85,45h5V35h15v5h5v5h5v5h-5V45h-5V40H95v5H90v5H85ZM35,45h5V40h5V35H60V45h5v5H60V45H55V40H45v5H40v5H35Zm95,40H120v5h-5v10h-5v5H100v5H90v5H60v-5H50v-5H40v-5H35V90H30V85H20V80H30V70h5V80H30v5h5v5h5v10H50v5H60v5H90v-5h10v-5h10V90h5V85h5V80h-5V70h5V80h10Z"/>

</svg>