<svg xmlns="http://www.w3.org/2000/svg" viewBox="0 0 134.9 134.91"><defs><style>.cls-1{fill:#ff7bac;}</style></defs><g id="Layer_2" data-name="Layer 2"><g id="Layer_1-2" data-name="Layer 1"><rect class="cls-1" x="53.96" width="26.98" height="4.5"/><rect class="cls-1" x="44.97" y="4.5" width="8.99" height="4.5"/><rect class="cls-1" x="80.94" y="4.5" width="9" height="4.5"/><rect class="cls-1" x="35.97" y="9" width="9" height="4.49"/><rect class="cls-1" x="89.94" y="9" width="8.99" height="4.49"/><rect class="cls-1" x="26.98" y="13.49" width="8.99" height="4.5"/><rect class="cls-1" x="98.93" y="13.49" width="8.99" height="4.5"/><rect class="cls-1" x="22.48" y="17.99" width="4.5" height="4.5"/><rect class="cls-1" x="107.92" y="17.99" width="4.5" height="4.5"/><rect class="cls-1" x="17.99" y="22.49" width="4.49" height="4.49"/><rect class="cls-1" x="112.42" y="22.49" width="4.5" height="4.49"/><rect class="cls-1" x="13.49" y="26.98" width="4.5" height="9"/><rect class="cls-1" x="116.92" y="26.98" width="4.49" height="9"/><rect class="cls-1" x="8.99" y="35.98" width="4.5" height="8.99"/><rect class="cls-1" x="121.41" y="35.98" width="4.5" height="8.99"/><rect class="cls-1" x="4.5" y="44.97" width="4.49" height="8.99"/><rect class="cls-1" x="125.91" y="44.97" width="4.5" height="8.99"/><rect class="cls-1" x="130.41" y="53.96" width="4.49" height="26.98"/><rect class="cls-1" y="53.96" width="4.5" height="26.98"/><rect class="cls-1" x="4.5" y="80.94" width="4.49" height="9"/><rect class="cls-1" x="125.91" y="80.94" width="4.5" height="9"/><rect class="cls-1" x="8.99" y="89.94" width="4.5" height="8.99"/><rect class="cls-1" x="121.41" y="89.94" width="4.5" height="8.99"/><rect class="cls-1" x="13.49" y="98.93" width="4.5" height="9"/><rect class="cls-1" x="116.92" y="98.93" width="4.49" height="9"/><rect class="cls-1" x="17.99" y="107.93" width="4.49" height="4.49"/><rect class="cls-1" x="112.42" y="107.93" width="4.5" height="4.49"/><rect class="cls-1" x="22.48" y="112.42" width="4.5" height="4.5"/><rect class="cls-1" x="107.92" y="112.42" width="4.5" height="4.5"/><rect class="cls-1" x="26.98" y="116.92" width="8.99" height="4.5"/><rect class="cls-1" x="98.93" y="116.92" width="8.99" height="4.5"/><rect class="cls-1" x="35.97" y="121.42" width="9" height="4.49"/><rect class="cls-1" x="89.94" y="121.42" width="8.99" height="4.49"/><rect class="cls-1" x="44.97" y="125.91" width="8.99" height="4.5"/><rect class="cls-1" x="80.94" y="125.91" width="9" height="4.5"/><rect class="cls-1" x="53.96" y="130.41" width="26.98" height="4.5"/><polygon class="cls-1" points="53.96 31.48 53.96 40.47 49.46 40.47 49.46 35.98 40.47 35.98 40.47 31.48 53.96 31.48"/><rect class="cls-1" x="35.97" y="35.98" width="4.5" height="4.49"/><polygon class="cls-1" points="94.43 31.48 94.43 35.98 85.44 35.98 85.44 40.47 80.94 40.47 80.94 31.48 94.43 31.48"/><rect class="cls-1" x="94.43" y="35.98" width="4.5" height="4.49"/><rect class="cls-1" x="31.48" y="40.47" width="4.49" height="4.5"/><rect class="cls-1" x="53.96" y="40.47" width="4.5" height="4.5"/><rect class="cls-1" x="76.45" y="40.47" width="4.49" height="4.5"/><rect class="cls-1" x="98.93" y="40.47" width="4.5" height="4.5"/><rect class="cls-1" x="103.43" y="62.96" width="4.49" height="8.99"/><rect class="cls-1" x="26.98" y="62.96" width="4.5" height="8.99"/><rect class="cls-1" x="17.99" y="71.95" width="8.99" height="4.5"/><rect class="cls-1" x="107.92" y="71.95" width="9" height="4.5"/><rect class="cls-1" x="26.98" y="76.45" width="4.5" height="4.49"/><rect class="cls-1" x="103.43" y="76.45" width="4.49" height="4.49"/><rect class="cls-1" x="31.48" y="80.94" width="4.49" height="9"/><rect class="cls-1" x="98.93" y="80.94" width="4.5" height="9"/><rect class="cls-1" x="35.97" y="89.94" width="9" height="4.5"/><rect class="cls-1" x="89.94" y="89.94" width="8.99" height="4.5"/><rect class="cls-1" x="44.97" y="94.44" width="8.99" height="4.49"/><rect class="cls-1" x="80.94" y="94.44" width="9" height="4.49"/><rect class="cls-1" x="53.96" y="98.93" width="26.98" height="4.5"/><path class="cls-1" d="M125.91,54V45h-4.5V36h-4.49V27h-4.5V22.49h-4.5V18h-9v-4.5h-9V9h-9V4.5H54V9H45v4.49H36V18H27v4.5h-4.5V27H18v9h-4.5v9H9v9H4.5v27H9v9h4.5v9H18v9h4.49v4.49H27v4.5h9v4.5h9v4.49h9v4.5h27v-4.5h9v-4.49h9v-4.5h9v-4.5h4.5v-4.49h4.5v-9h4.49v-9h4.5v-9h4.5V54ZM76.45,40.47h4.49v-9H94.43V36h4.5v4.49h4.5V45h-4.5v-4.5h-4.5V36h-9v4.49h-4.5V45H76.45Zm-45,0H36V36h4.5v-4.5H54v9h4.5V45H54v-4.5h-4.5V36h-9v4.49H36V45H31.48Zm85.44,36h-9v4.49h-4.49v9h-4.5v4.5h-9v4.49h-9v4.5H54v-4.5H45V94.44H36v-4.5H31.48v-9H27V76.45H18V72h9V63h4.5v9H27v4.5h4.5v4.49H36v9h9v4.5h9v4.49h27V94.44h9v-4.5h9v-9h4.5V76.45h4.49V72h-4.49V63h4.49v9h9Z"/></g></g></svg>